solid OpenSCAD_Model
  facet normal 1 -0 0
    outer loop
      vertex 8 5 10
      vertex 8 8 0.25
      vertex 8 8 10
    endloop
  endfacet
  facet normal 1 0 0
    outer loop
      vertex 8 8 0.25
      vertex 8 5 10
      vertex 8 5 0.25
    endloop
  endfacet
  facet normal -0 0 1
    outer loop
      vertex 5 8 10
      vertex 8 5 10
      vertex 8 8 10
    endloop
  endfacet
  facet normal 0 0 1
    outer loop
      vertex 8 5 10
      vertex 5 8 10
      vertex 5 5 10
    endloop
  endfacet
  facet normal -1 0 0
    outer loop
      vertex 5 5 0.25
      vertex 5 8 10
      vertex 5 8 0.25
    endloop
  endfacet
  facet normal -1 -0 0
    outer loop
      vertex 5 8 10
      vertex 5 5 0.25
      vertex 5 5 10
    endloop
  endfacet
  facet normal 0 1 -0
    outer loop
      vertex 8 8 0.25
      vertex 5 8 10
      vertex 8 8 10
    endloop
  endfacet
  facet normal 0 1 0
    outer loop
      vertex 5 8 10
      vertex 8 8 0.25
      vertex 5 8 0.25
    endloop
  endfacet
  facet normal 0 -1 0
    outer loop
      vertex 5 5 0.25
      vertex 8 5 10
      vertex 5 5 10
    endloop
  endfacet
  facet normal 0 -1 -0
    outer loop
      vertex 8 5 10
      vertex 5 5 0.25
      vertex 8 5 0.25
    endloop
  endfacet
  facet normal 1 -0 0
    outer loop
      vertex 8 -8 10
      vertex 8 -5 0.25
      vertex 8 -5 10
    endloop
  endfacet
  facet normal 1 0 0
    outer loop
      vertex 8 -5 0.25
      vertex 8 -8 10
      vertex 8 -8 0.25
    endloop
  endfacet
  facet normal -0 0 1
    outer loop
      vertex 5 -5 10
      vertex 8 -8 10
      vertex 8 -5 10
    endloop
  endfacet
  facet normal 0 0 1
    outer loop
      vertex 8 -8 10
      vertex 5 -5 10
      vertex 5 -8 10
    endloop
  endfacet
  facet normal -1 0 0
    outer loop
      vertex 5 -8 0.25
      vertex 5 -5 10
      vertex 5 -5 0.25
    endloop
  endfacet
  facet normal -1 -0 0
    outer loop
      vertex 5 -5 10
      vertex 5 -8 0.25
      vertex 5 -8 10
    endloop
  endfacet
  facet normal 0 1 -0
    outer loop
      vertex 8 -5 0.25
      vertex 5 -5 10
      vertex 8 -5 10
    endloop
  endfacet
  facet normal 0 1 0
    outer loop
      vertex 5 -5 10
      vertex 8 -5 0.25
      vertex 5 -5 0.25
    endloop
  endfacet
  facet normal 0 -1 0
    outer loop
      vertex 5 -8 0.25
      vertex 8 -8 10
      vertex 5 -8 10
    endloop
  endfacet
  facet normal 0 -1 -0
    outer loop
      vertex 8 -8 10
      vertex 5 -8 0.25
      vertex 8 -8 0.25
    endloop
  endfacet
  facet normal -0 0 1
    outer loop
      vertex -8 8 10
      vertex -5 5 10
      vertex -5 8 10
    endloop
  endfacet
  facet normal 0 0 1
    outer loop
      vertex -5 5 10
      vertex -8 8 10
      vertex -8 5 10
    endloop
  endfacet
  facet normal 1 -0 0
    outer loop
      vertex -5 5 10
      vertex -5 8 0.25
      vertex -5 8 10
    endloop
  endfacet
  facet normal 1 0 0
    outer loop
      vertex -5 8 0.25
      vertex -5 5 10
      vertex -5 5 0.25
    endloop
  endfacet
  facet normal 0 -1 0
    outer loop
      vertex -8 5 0.25
      vertex -5 5 10
      vertex -8 5 10
    endloop
  endfacet
  facet normal 0 -1 -0
    outer loop
      vertex -5 5 10
      vertex -8 5 0.25
      vertex -5 5 0.25
    endloop
  endfacet
  facet normal 0 1 -0
    outer loop
      vertex -5 8 0.25
      vertex -8 8 10
      vertex -5 8 10
    endloop
  endfacet
  facet normal 0 1 0
    outer loop
      vertex -8 8 10
      vertex -5 8 0.25
      vertex -8 8 0.25
    endloop
  endfacet
  facet normal -1 0 0
    outer loop
      vertex -8 5 0.25
      vertex -8 8 10
      vertex -8 8 0.25
    endloop
  endfacet
  facet normal -1 -0 0
    outer loop
      vertex -8 8 10
      vertex -8 5 0.25
      vertex -8 5 10
    endloop
  endfacet
  facet normal 0 -1 0
    outer loop
      vertex -8 -8 0.25
      vertex -5 -8 10
      vertex -8 -8 10
    endloop
  endfacet
  facet normal 0 -1 -0
    outer loop
      vertex -5 -8 10
      vertex -8 -8 0.25
      vertex -5 -8 0.25
    endloop
  endfacet
  facet normal -0 0 1
    outer loop
      vertex -8 -5 10
      vertex -5 -8 10
      vertex -5 -5 10
    endloop
  endfacet
  facet normal 0 0 1
    outer loop
      vertex -5 -8 10
      vertex -8 -5 10
      vertex -8 -8 10
    endloop
  endfacet
  facet normal 0 1 -0
    outer loop
      vertex -5 -5 0.25
      vertex -8 -5 10
      vertex -5 -5 10
    endloop
  endfacet
  facet normal 0 1 0
    outer loop
      vertex -8 -5 10
      vertex -5 -5 0.25
      vertex -8 -5 0.25
    endloop
  endfacet
  facet normal -1 0 0
    outer loop
      vertex -8 -8 0.25
      vertex -8 -5 10
      vertex -8 -5 0.25
    endloop
  endfacet
  facet normal -1 -0 0
    outer loop
      vertex -8 -5 10
      vertex -8 -8 0.25
      vertex -8 -8 10
    endloop
  endfacet
  facet normal 1 -0 0
    outer loop
      vertex -5 -8 10
      vertex -5 -5 0.25
      vertex -5 -5 10
    endloop
  endfacet
  facet normal 1 0 0
    outer loop
      vertex -5 -5 0.25
      vertex -5 -8 10
      vertex -5 -8 0.25
    endloop
  endfacet
  facet normal 1 -0 0
    outer loop
      vertex 8.5 -8.5 0.25
      vertex 8.5 8.5 -0.25
      vertex 8.5 8.5 0.25
    endloop
  endfacet
  facet normal 1 0 0
    outer loop
      vertex 8.5 8.5 -0.25
      vertex 8.5 -8.5 0.25
      vertex 8.5 -8.5 -0.25
    endloop
  endfacet
  facet normal -0 0 1
    outer loop
      vertex 5 5 0.25
      vertex 8 -5 0.25
      vertex 8 5 0.25
    endloop
  endfacet
  facet normal 0 0 1
    outer loop
      vertex 8 -5 0.25
      vertex 5 5 0.25
      vertex 5 -5 0.25
    endloop
  endfacet
  facet normal 0 0 1
    outer loop
      vertex 8 5 0.25
      vertex 8.5 8.5 0.25
      vertex 8 8 0.25
    endloop
  endfacet
  facet normal 0 0 1
    outer loop
      vertex 8.5 8.5 0.25
      vertex 5 8 0.25
      vertex 8 8 0.25
    endloop
  endfacet
  facet normal 0 0 1
    outer loop
      vertex -5 5 0.25
      vertex 5 5 0.25
      vertex 5 8 0.25
    endloop
  endfacet
  facet normal 0 0 1
    outer loop
      vertex 5 5 0.25
      vertex -5 5 0.25
      vertex 5 -5 0.25
    endloop
  endfacet
  facet normal 0 0 1
    outer loop
      vertex 5 -5 0.25
      vertex -5 -5 0.25
      vertex 5 -8 0.25
    endloop
  endfacet
  facet normal 0 0 1
    outer loop
      vertex -5 5 0.25
      vertex 5 8 0.25
      vertex -5 8 0.25
    endloop
  endfacet
  facet normal 0 0 1
    outer loop
      vertex 8.5 8.5 0.25
      vertex -5 8 0.25
      vertex 5 8 0.25
    endloop
  endfacet
  facet normal -0 0 1
    outer loop
      vertex -8.5 8.5 0.25
      vertex -5 8 0.25
      vertex 8.5 8.5 0.25
    endloop
  endfacet
  facet normal 0 0 1
    outer loop
      vertex -8 8 0.25
      vertex -8.5 8.5 0.25
      vertex -8 5 0.25
    endloop
  endfacet
  facet normal 0 0 1
    outer loop
      vertex -5 8 0.25
      vertex -8.5 8.5 0.25
      vertex -8 8 0.25
    endloop
  endfacet
  facet normal 0 0 1
    outer loop
      vertex 8.5 8.5 0.25
      vertex 8 5 0.25
      vertex 8.5 -8.5 0.25
    endloop
  endfacet
  facet normal -0 0 1
    outer loop
      vertex 8 -5 0.25
      vertex 8.5 -8.5 0.25
      vertex 8 5 0.25
    endloop
  endfacet
  facet normal -0 0 1
    outer loop
      vertex 8 -8 0.25
      vertex 8.5 -8.5 0.25
      vertex 8 -5 0.25
    endloop
  endfacet
  facet normal -0 0 1
    outer loop
      vertex 5 -8 0.25
      vertex 8.5 -8.5 0.25
      vertex 8 -8 0.25
    endloop
  endfacet
  facet normal 0 0 1
    outer loop
      vertex -5 -8 0.25
      vertex 5 -8 0.25
      vertex -5 -5 0.25
    endloop
  endfacet
  facet normal -0 0 1
    outer loop
      vertex -5 -8 0.25
      vertex 8.5 -8.5 0.25
      vertex 5 -8 0.25
    endloop
  endfacet
  facet normal 0 0 1
    outer loop
      vertex -8.5 -8.5 0.25
      vertex -5 -8 0.25
      vertex -8 -8 0.25
    endloop
  endfacet
  facet normal 0 0 1
    outer loop
      vertex -8.5 -8.5 0.25
      vertex -8 -5 0.25
      vertex -8.5 8.5 0.25
    endloop
  endfacet
  facet normal 0 0 1
    outer loop
      vertex -5 -8 0.25
      vertex -8.5 -8.5 0.25
      vertex 8.5 -8.5 0.25
    endloop
  endfacet
  facet normal 0 0 1
    outer loop
      vertex -8 -5 0.25
      vertex -8.5 -8.5 0.25
      vertex -8 -8 0.25
    endloop
  endfacet
  facet normal 0 0 1
    outer loop
      vertex 5 -5 0.25
      vertex -5 5 0.25
      vertex -5 -5 0.25
    endloop
  endfacet
  facet normal 0 0 1
    outer loop
      vertex -5 5 0.25
      vertex -8 -5 0.25
      vertex -5 -5 0.25
    endloop
  endfacet
  facet normal 0 0 1
    outer loop
      vertex -8.5 8.5 0.25
      vertex -8 -5 0.25
      vertex -8 5 0.25
    endloop
  endfacet
  facet normal -0 0 1
    outer loop
      vertex -8 5 0.25
      vertex -8 -5 0.25
      vertex -5 5 0.25
    endloop
  endfacet
  facet normal 0 0 -1
    outer loop
      vertex -8.5 -8.5 -0.25
      vertex 8.5 8.5 -0.25
      vertex 8.5 -8.5 -0.25
    endloop
  endfacet
  facet normal -0 0 -1
    outer loop
      vertex 8.5 8.5 -0.25
      vertex -8.5 -8.5 -0.25
      vertex -8.5 8.5 -0.25
    endloop
  endfacet
  facet normal -1 0 0
    outer loop
      vertex -8.5 -8.5 -0.25
      vertex -8.5 8.5 0.25
      vertex -8.5 8.5 -0.25
    endloop
  endfacet
  facet normal -1 -0 0
    outer loop
      vertex -8.5 8.5 0.25
      vertex -8.5 -8.5 -0.25
      vertex -8.5 -8.5 0.25
    endloop
  endfacet
  facet normal 0 1 -0
    outer loop
      vertex 8.5 8.5 -0.25
      vertex -8.5 8.5 0.25
      vertex 8.5 8.5 0.25
    endloop
  endfacet
  facet normal 0 1 0
    outer loop
      vertex -8.5 8.5 0.25
      vertex 8.5 8.5 -0.25
      vertex -8.5 8.5 -0.25
    endloop
  endfacet
  facet normal 0 -1 0
    outer loop
      vertex -8.5 -8.5 -0.25
      vertex 8.5 -8.5 0.25
      vertex -8.5 -8.5 0.25
    endloop
  endfacet
  facet normal 0 -1 -0
    outer loop
      vertex 8.5 -8.5 0.25
      vertex -8.5 -8.5 -0.25
      vertex 8.5 -8.5 -0.25
    endloop
  endfacet
endsolid OpenSCAD_Model
